<?xml version="1.0" encoding="UTF-8"?>
<svg xmlns="http://www.w3.org/2000/svg"
     xmlns:xlink="http://www.w3.org/1999/xlink"
     xmlns:gadfly="http://www.gadflyjl.org/ns"
     version="1.2"
     width="203.2mm" height="203.2mm" viewBox="0 0 203.2 203.2"
     stroke="none"
     fill="#000000"
     stroke-width="0.3"
     font-size="3.88"
>
<g class="plotroot xscalable yscalable" id="img-beac9920-1">
  <g font-size="3.88" font-family="'PT Sans','Helvetica Neue','Helvetica',sans-serif" fill="#564A55" stroke="#000000" stroke-opacity="0.000" id="img-beac9920-2">
    <text x="51.41" y="191.59" text-anchor="middle" dy="0.6em">beta[2]</text>
  </g>
  <g class="guide xlabels" font-size="2.82" font-family="'PT Sans Caption','Helvetica Neue','Helvetica',sans-serif" fill="#6C606B" id="img-beac9920-3">
    <text x="20.63" y="184.92" text-anchor="middle" dy="0.6em">0.0</text>
    <text x="41.15" y="184.92" text-anchor="middle" dy="0.6em">0.5</text>
    <text x="61.66" y="184.92" text-anchor="middle" dy="0.6em">1.0</text>
    <text x="82.18" y="184.92" text-anchor="middle" dy="0.6em">1.5</text>
  </g>
  <g class="guide colorkey" id="img-beac9920-4">
    <g font-size="2.82" font-family="'PT Sans','Helvetica Neue','Helvetica',sans-serif" fill="#4C404B" id="img-beac9920-5">
      <text x="88.49" y="146.04" dy="0.35em">0.03</text>
      <text x="88.49" y="166.52" dy="0.35em">0.00</text>
      <text x="88.49" y="159.7" dy="0.35em">0.01</text>
      <text x="88.49" y="152.87" dy="0.35em">0.02</text>
      <text x="88.49" y="139.21" dy="0.35em">0.04</text>
    </g>
    <g shape-rendering="crispEdges" stroke="#000000" stroke-opacity="0.000" id="img-beac9920-6">
      <rect x="86.18" y="165.84" width="1.31" height="0.68" fill="#004D84"/>
      <rect x="86.18" y="165.16" width="1.31" height="0.68" fill="#005B8D"/>
      <rect x="86.18" y="164.48" width="1.31" height="0.68" fill="#006995"/>
      <rect x="86.18" y="163.79" width="1.31" height="0.68" fill="#00769D"/>
      <rect x="86.18" y="163.11" width="1.31" height="0.68" fill="#0083A3"/>
      <rect x="86.18" y="162.43" width="1.31" height="0.68" fill="#278FA9"/>
      <rect x="86.18" y="161.75" width="1.31" height="0.68" fill="#409BAF"/>
      <rect x="86.18" y="161.06" width="1.31" height="0.68" fill="#55A7B5"/>
      <rect x="86.18" y="160.38" width="1.31" height="0.68" fill="#69B2BA"/>
      <rect x="86.18" y="159.7" width="1.31" height="0.68" fill="#7BBCC0"/>
      <rect x="86.18" y="159.01" width="1.31" height="0.68" fill="#8DC6C5"/>
      <rect x="86.18" y="158.33" width="1.31" height="0.68" fill="#9ED0CB"/>
      <rect x="86.18" y="157.65" width="1.31" height="0.68" fill="#A5CFC7"/>
      <rect x="86.18" y="156.97" width="1.31" height="0.68" fill="#ABCEC4"/>
      <rect x="86.18" y="156.28" width="1.31" height="0.68" fill="#B1CCC2"/>
      <rect x="86.18" y="155.6" width="1.31" height="0.68" fill="#B5CCC1"/>
      <rect x="86.18" y="154.92" width="1.31" height="0.68" fill="#B7CBBF"/>
      <rect x="86.18" y="154.23" width="1.31" height="0.68" fill="#B9CBBD"/>
      <rect x="86.18" y="153.55" width="1.31" height="0.68" fill="#BBCBBB"/>
      <rect x="86.18" y="152.87" width="1.31" height="0.68" fill="#BDCABA"/>
      <rect x="86.18" y="152.19" width="1.31" height="0.68" fill="#BFCAB8"/>
      <rect x="86.18" y="151.5" width="1.31" height="0.68" fill="#C2C9B7"/>
      <rect x="86.18" y="150.82" width="1.31" height="0.68" fill="#C4C9B6"/>
      <rect x="86.18" y="150.14" width="1.31" height="0.68" fill="#C6C8B5"/>
      <rect x="86.18" y="149.46" width="1.31" height="0.68" fill="#C9C7B4"/>
      <rect x="86.18" y="148.77" width="1.31" height="0.68" fill="#CCC7B2"/>
      <rect x="86.18" y="148.09" width="1.31" height="0.68" fill="#CFC6AE"/>
      <rect x="86.18" y="147.41" width="1.31" height="0.68" fill="#D4C5AA"/>
      <rect x="86.18" y="146.72" width="1.31" height="0.68" fill="#D8C3A6"/>
      <rect x="86.18" y="146.04" width="1.31" height="0.68" fill="#D3B79A"/>
      <rect x="86.18" y="145.36" width="1.31" height="0.68" fill="#CDAB8E"/>
      <rect x="86.18" y="144.68" width="1.31" height="0.68" fill="#C89E82"/>
      <rect x="86.18" y="143.99" width="1.31" height="0.68" fill="#C19177"/>
      <rect x="86.18" y="143.31" width="1.31" height="0.68" fill="#BA836C"/>
      <rect x="86.18" y="142.63" width="1.31" height="0.68" fill="#B27563"/>
      <rect x="86.18" y="141.94" width="1.31" height="0.68" fill="#AA665A"/>
      <rect x="86.18" y="141.26" width="1.31" height="0.68" fill="#A05752"/>
      <rect x="86.18" y="140.58" width="1.31" height="0.68" fill="#96484A"/>
      <rect x="86.18" y="139.9" width="1.31" height="0.68" fill="#8B3844"/>
      <rect x="86.18" y="139.21" width="1.31" height="0.68" fill="#7E273E"/>
      <g stroke="#FFFFFF" stroke-width="0.2" id="img-beac9920-7">
        <path fill="none" d="M86.18,146.04 L 87.49 146.04"/>
        <path fill="none" d="M86.18,166.52 L 87.49 166.52"/>
        <path fill="none" d="M86.18,159.7 L 87.49 159.7"/>
        <path fill="none" d="M86.18,152.87 L 87.49 152.87"/>
        <path fill="none" d="M86.18,139.21 L 87.49 139.21"/>
      </g>
    </g>
    <g fill="#362A35" font-size="3.88" font-family="'PT Sans','Helvetica Neue','Helvetica',sans-serif" stroke="#000000" stroke-opacity="0.000" id="img-beac9920-8">
      <text x="86.18" y="135.21">Density</text>
    </g>
  </g>
<g clip-path="url(#img-beac9920-9)">
  <g id="img-beac9920-10">
    <g pointer-events="visible" opacity="1" fill="#000000" fill-opacity="0.000" stroke="#000000" stroke-opacity="0.000" class="guide background" id="img-beac9920-11">
      <rect x="18.63" y="106.6" width="65.55" height="77.32"/>
    </g>
    <g class="guide ygridlines xfixed" stroke-dasharray="0.5,0.5" stroke-width="0.2" stroke="#D0D0E0" id="img-beac9920-12">
      <path fill="none" d="M18.63,181.91 L 84.18 181.91"/>
      <path fill="none" d="M18.63,163.59 L 84.18 163.59"/>
      <path fill="none" d="M18.63,145.26 L 84.18 145.26"/>
      <path fill="none" d="M18.63,126.93 L 84.18 126.93"/>
      <path fill="none" d="M18.63,108.6 L 84.18 108.6"/>
    </g>
    <g class="guide xgridlines yfixed" stroke-dasharray="0.5,0.5" stroke-width="0.2" stroke="#D0D0E0" id="img-beac9920-13">
      <path fill="none" d="M20.63,106.6 L 20.63 183.92"/>
      <path fill="none" d="M41.15,106.6 L 41.15 183.92"/>
      <path fill="none" d="M61.66,106.6 L 61.66 183.92"/>
      <path fill="none" d="M82.18,106.6 L 82.18 183.92"/>
    </g>
    <g class="plotpanel" id="img-beac9920-14">
      <g stroke-width="0.3" fill="#000000" fill-opacity="0.000" stroke-dasharray="none" id="img-beac9920-15">
        <path fill="none" d="M69.34,173.74 L 70.94 171.15 73.49 166.97 75.08 162.79 76.03 157.07 76.93 151.84 76.03 147.65 73.49 141.85 73.21 140.89 70.94 137.89 69.23 129.94 68.4 126.09 65.85 121.92 63.31 124.32 61.24 118.99 60.76 118.43 58.22 117.56 57.72 118.99 55.67 121.42 54.03 118.99 53.13 115.44 50.58 114.76 48.49 118.99 48.04 120.04 45.88 129.94 45.49 130.47 45.13 129.94 42.95 120.56 40.4 122.68 38.39 129.94 37.86 132.64 36.24 129.94 35.31 128.6 34.22 129.94 33.33 140.89 32.77 143.75 30.48 151.84 31.08 162.79 32.77 166.23 35.31 169.35 37.7 173.74" stroke="#006C97" class="geometry color_"/>
        <path fill="none" d="M67.3,173.74 L 68.4 170.68 70.94 165.15 72.09 162.79 70.94 153.81 70.77 151.84 68.4 143.9 65.85 143.94 63.88 140.89 63.31 139.07 60.76 136.69 58.22 133.88 55.67 132.42 53.13 133.87 50.58 137.02 48.04 135.25 45.49 137.79 42.95 139.33 42.33 140.89 40.4 143.73 37.86 148.95 36.21 151.84 35.31 157.9 34.98 162.79 35.31 163.35 37.86 168.37 40.24 173.74" stroke="#1389A6" class="geometry color_"/>
        <path fill="none" d="M41.93,173.74 L 40.4 170.44 37.87 162.79 40.4 152.58 40.82 151.84 42.95 146.71 45.49 144.8 48.04 143.17 50.58 143.84 53.13 141.24 54.33 140.89 55.67 140.05 56.26 140.89 58.22 142.39 60.76 143.76 63.31 144.82 65.85 148.82 68.4 150.68 68.74 151.84 69.93 162.79 68.4 166.56 65.85 173.69 65.84 173.74" stroke="#4FA3B3" class="geometry color_"/>
        <path fill="none" d="M43.3,173.74 L 42.95 172.54 40.4 166.92 39.03 162.79 40.4 157.28 42.95 152.51 45.09 151.84 45.49 151.58 48.04 149.38 50.58 147.73 53.13 144.83 55.67 145.29 58.22 146.45 60.76 148.07 63.31 149.64 64.69 151.84 65.85 154.87 68.2 162.79 65.85 168.22 64.72 173.74" stroke="#7ABCBF" class="geometry color_"/>
        <path fill="none" d="M44.22,173.74 L 42.95 169.38 40.4 163.4 40.2 162.79 40.4 161.97 42.95 155.84 45.49 154.88 48.04 152.82 50.37 151.84 50.58 151.63 53.13 148.42 55.67 150.24 58.22 150.52 60.05 151.84 60.76 152.2 63.31 153.89 65.85 162.79 63.6 173.74" stroke="#9FD0CA" class="geometry color_"/>
        <path fill="none" d="M45.15,173.74 L 42.95 166.22 41.5 162.79 42.95 159.17 45.49 158.03 48.04 154.44 50.58 153.4 53.13 151.93 55.67 153.01 58.22 152.99 60.76 155.13 63.31 157.67 64.77 162.79 63.31 169.89 62.51 173.74" stroke="#ADCDC4" class="geometry color_"/>
        <path fill="none" d="M45.83,173.74 L 45.49 167.67 42.95 163.07 42.83 162.79 42.95 162.5 45.49 161.19 48.04 156.06 50.58 155.05 53.13 153.72 55.67 154.73 58.22 154.69 60.76 158.06 63.31 161.44 63.69 162.79 63.31 164.66 61.44 173.74" stroke="#B6CBC0" class="geometry color_"/>
        <path fill="none" d="M46.36,173.74 L 45.83 162.79 48.04 157.68 50.58 156.7 53.13 155.52 55.67 156.46 58.22 156.4 60.76 160.99 62 162.79 60.76 169.59 60.55 173.74" stroke="#BBCBBC" class="geometry color_"/>
        <path fill="none" d="M59.99,173.74 L 60.45 162.79 58.22 158.1 55.67 158.19 53.13 157.31 50.58 158.35 48.04 159.3 46.53 162.79 46.9 173.74" stroke="#C0CAB8" class="geometry color_"/>
        <path fill="none" d="M59.43,173.74 L 59.64 162.79 58.22 159.8 55.67 159.92 53.13 159.11 50.58 160 48.04 160.92 47.23 162.79 47.43 173.74" stroke="#C5C8B6" class="geometry color_"/>
        <path fill="none" d="M58.87,173.74 L 58.83 162.79 58.22 161.51 55.67 161.64 53.13 160.9 50.58 161.65 48.04 162.54 47.93 162.79 47.97 173.74" stroke="#CAC7B4" class="geometry color_"/>
        <path fill="none" d="M48.79,173.74 L 50.58 164.19 52.75 162.79 53.13 162.69 53.47 162.79 55.67 163.84 58.22 169.24 58.31 173.74" stroke="#D2C5AB" class="geometry color_"/>
        <path fill="none" d="M57.51,173.74 L 55.67 166.97 53.13 165.42 50.58 168.77 49.65 173.74" stroke="#D3B89A" class="geometry color_"/>
        <path fill="none" d="M56.66,173.74 L 55.67 170.1 53.13 168.19 50.58 173.35 50.51 173.74" stroke="#C69C7F" class="geometry color_"/>
        <path fill="none" d="M55.81,173.74 L 55.67 173.23 53.13 170.97 51.8 173.74" stroke="#B77D68" class="geometry color_"/>
      </g>
    </g>
  </g>
</g>
  <g class="guide ylabels" font-size="2.82" font-family="'PT Sans Caption','Helvetica Neue','Helvetica',sans-serif" fill="#6C606B" id="img-beac9920-16">
    <text x="17.63" y="181.91" text-anchor="end" dy="0.35em">0.0</text>
    <text x="17.63" y="163.59" text-anchor="end" dy="0.35em">0.5</text>
    <text x="17.63" y="145.26" text-anchor="end" dy="0.35em">1.0</text>
    <text x="17.63" y="126.93" text-anchor="end" dy="0.35em">1.5</text>
    <text x="17.63" y="108.6" text-anchor="end" dy="0.35em">2.0</text>
  </g>
  <g font-size="3.88" font-family="'PT Sans','Helvetica Neue','Helvetica',sans-serif" fill="#564A55" stroke="#000000" stroke-opacity="0.000" id="img-beac9920-17">
    <text x="8.81" y="143.26" text-anchor="middle" dy="0.35em" transform="rotate(-90, 8.81, 145.26)">s2</text>
  </g>
</g>
<g class="plotroot xscalable yscalable" id="img-beac9920-18">
  <g font-size="3.88" font-family="'PT Sans','Helvetica Neue','Helvetica',sans-serif" fill="#564A55" stroke="#000000" stroke-opacity="0.000" id="img-beac9920-19">
    <text x="153.01" y="89.99" text-anchor="middle" dy="0.6em">beta[1]</text>
  </g>
  <g class="guide xlabels" font-size="2.82" font-family="'PT Sans Caption','Helvetica Neue','Helvetica',sans-serif" fill="#6C606B" id="img-beac9920-20">
    <text x="122.23" y="83.32" text-anchor="middle" dy="0.6em">-2</text>
    <text x="134.54" y="83.32" text-anchor="middle" dy="0.6em">-1</text>
    <text x="146.85" y="83.32" text-anchor="middle" dy="0.6em">0</text>
    <text x="159.16" y="83.32" text-anchor="middle" dy="0.6em">1</text>
    <text x="171.47" y="83.32" text-anchor="middle" dy="0.6em">2</text>
    <text x="183.78" y="83.32" text-anchor="middle" dy="0.6em">3</text>
  </g>
  <g class="guide colorkey" id="img-beac9920-21">
    <g font-size="2.82" font-family="'PT Sans','Helvetica Neue','Helvetica',sans-serif" fill="#4C404B" id="img-beac9920-22">
      <text x="190.09" y="44.44" dy="0.35em">0.03</text>
      <text x="190.09" y="64.92" dy="0.35em">0.00</text>
      <text x="190.09" y="58.1" dy="0.35em">0.01</text>
      <text x="190.09" y="51.27" dy="0.35em">0.02</text>
      <text x="190.09" y="37.61" dy="0.35em">0.04</text>
    </g>
    <g shape-rendering="crispEdges" stroke="#000000" stroke-opacity="0.000" id="img-beac9920-23">
      <rect x="187.78" y="64.24" width="1.31" height="0.68" fill="#004D84"/>
      <rect x="187.78" y="63.56" width="1.31" height="0.68" fill="#005B8D"/>
      <rect x="187.78" y="62.88" width="1.31" height="0.68" fill="#006995"/>
      <rect x="187.78" y="62.19" width="1.31" height="0.68" fill="#00769D"/>
      <rect x="187.78" y="61.51" width="1.31" height="0.68" fill="#0083A3"/>
      <rect x="187.78" y="60.83" width="1.31" height="0.68" fill="#278FA9"/>
      <rect x="187.78" y="60.15" width="1.31" height="0.68" fill="#409BAF"/>
      <rect x="187.78" y="59.46" width="1.31" height="0.68" fill="#55A7B5"/>
      <rect x="187.78" y="58.78" width="1.31" height="0.68" fill="#69B2BA"/>
      <rect x="187.78" y="58.1" width="1.31" height="0.68" fill="#7BBCC0"/>
      <rect x="187.78" y="57.41" width="1.31" height="0.68" fill="#8DC6C5"/>
      <rect x="187.78" y="56.73" width="1.31" height="0.68" fill="#9ED0CB"/>
      <rect x="187.78" y="56.05" width="1.31" height="0.68" fill="#A5CFC7"/>
      <rect x="187.78" y="55.37" width="1.31" height="0.68" fill="#ABCEC4"/>
      <rect x="187.78" y="54.68" width="1.31" height="0.68" fill="#B1CCC2"/>
      <rect x="187.78" y="54" width="1.31" height="0.68" fill="#B5CCC1"/>
      <rect x="187.78" y="53.32" width="1.31" height="0.68" fill="#B7CBBF"/>
      <rect x="187.78" y="52.63" width="1.31" height="0.68" fill="#B9CBBD"/>
      <rect x="187.78" y="51.95" width="1.31" height="0.68" fill="#BBCBBB"/>
      <rect x="187.78" y="51.27" width="1.31" height="0.68" fill="#BDCABA"/>
      <rect x="187.78" y="50.59" width="1.31" height="0.68" fill="#BFCAB8"/>
      <rect x="187.78" y="49.9" width="1.31" height="0.68" fill="#C2C9B7"/>
      <rect x="187.78" y="49.22" width="1.31" height="0.68" fill="#C4C9B6"/>
      <rect x="187.78" y="48.54" width="1.31" height="0.68" fill="#C6C8B5"/>
      <rect x="187.78" y="47.86" width="1.31" height="0.68" fill="#C9C7B4"/>
      <rect x="187.78" y="47.17" width="1.31" height="0.68" fill="#CCC7B2"/>
      <rect x="187.78" y="46.49" width="1.31" height="0.68" fill="#CFC6AE"/>
      <rect x="187.78" y="45.81" width="1.31" height="0.68" fill="#D4C5AA"/>
      <rect x="187.78" y="45.12" width="1.31" height="0.68" fill="#D8C3A6"/>
      <rect x="187.78" y="44.44" width="1.31" height="0.68" fill="#D3B79A"/>
      <rect x="187.78" y="43.76" width="1.31" height="0.68" fill="#CDAB8E"/>
      <rect x="187.78" y="43.08" width="1.31" height="0.68" fill="#C89E82"/>
      <rect x="187.78" y="42.39" width="1.31" height="0.68" fill="#C19177"/>
      <rect x="187.78" y="41.71" width="1.31" height="0.68" fill="#BA836C"/>
      <rect x="187.78" y="41.03" width="1.31" height="0.68" fill="#B27563"/>
      <rect x="187.78" y="40.34" width="1.31" height="0.68" fill="#AA665A"/>
      <rect x="187.78" y="39.66" width="1.31" height="0.68" fill="#A05752"/>
      <rect x="187.78" y="38.98" width="1.31" height="0.68" fill="#96484A"/>
      <rect x="187.78" y="38.3" width="1.31" height="0.68" fill="#8B3844"/>
      <rect x="187.78" y="37.61" width="1.31" height="0.68" fill="#7E273E"/>
      <g stroke="#FFFFFF" stroke-width="0.2" id="img-beac9920-24">
        <path fill="none" d="M187.78,44.44 L 189.09 44.44"/>
        <path fill="none" d="M187.78,64.92 L 189.09 64.92"/>
        <path fill="none" d="M187.78,58.1 L 189.09 58.1"/>
        <path fill="none" d="M187.78,51.27 L 189.09 51.27"/>
        <path fill="none" d="M187.78,37.61 L 189.09 37.61"/>
      </g>
    </g>
    <g fill="#362A35" font-size="3.88" font-family="'PT Sans','Helvetica Neue','Helvetica',sans-serif" stroke="#000000" stroke-opacity="0.000" id="img-beac9920-25">
      <text x="187.78" y="33.61">Density</text>
    </g>
  </g>
<g clip-path="url(#img-beac9920-26)">
  <g id="img-beac9920-27">
    <g pointer-events="visible" opacity="1" fill="#000000" fill-opacity="0.000" stroke="#000000" stroke-opacity="0.000" class="guide background" id="img-beac9920-28">
      <rect x="120.23" y="5" width="65.55" height="77.32"/>
    </g>
    <g class="guide ygridlines xfixed" stroke-dasharray="0.5,0.5" stroke-width="0.2" stroke="#D0D0E0" id="img-beac9920-29">
      <path fill="none" d="M120.23,80.31 L 185.78 80.31"/>
      <path fill="none" d="M120.23,61.99 L 185.78 61.99"/>
      <path fill="none" d="M120.23,43.66 L 185.78 43.66"/>
      <path fill="none" d="M120.23,25.33 L 185.78 25.33"/>
      <path fill="none" d="M120.23,7 L 185.78 7"/>
    </g>
    <g class="guide xgridlines yfixed" stroke-dasharray="0.5,0.5" stroke-width="0.2" stroke="#D0D0E0" id="img-beac9920-30">
      <path fill="none" d="M122.23,5 L 122.23 82.32"/>
      <path fill="none" d="M134.54,5 L 134.54 82.32"/>
      <path fill="none" d="M146.85,5 L 146.85 82.32"/>
      <path fill="none" d="M159.16,5 L 159.16 82.32"/>
      <path fill="none" d="M171.47,5 L 171.47 82.32"/>
      <path fill="none" d="M183.78,5 L 183.78 82.32"/>
    </g>
    <g class="plotpanel" id="img-beac9920-31">
      <g stroke-width="0.3" fill="#000000" fill-opacity="0.000" stroke-dasharray="none" id="img-beac9920-32">
        <path fill="none" d="M138.4,72.14 L 137.51 71.27 135.09 66.6 133.3 61.19 132.68 52.7 132.37 50.24 132.68 48.48 135.09 40.26 135.76 39.29 137.09 28.34 137.51 27.16 138.12 28.34 139.93 31.18 142.35 29.45 143.01 28.34 144.77 19.52 147.19 17.87 149.6 20.85 151.9 17.39 152.02 16.84 154.44 12.73 155.23 17.39 156.86 19.91 159.28 23.68 161.7 21.88 164.11 21.88 165.85 17.39 166.53 13.87 166.87 17.39 168.95 28.14 169.04 28.34 171.37 32.23 172.33 28.34 173.79 24.47 174.97 28.34 173.79 38.54 173.65 39.29 173.79 39.83 176.21 44.13 177.37 50.24 176.44 61.19 176.21 61.96 173.79 64.35 171.37 69.98 169.84 72.14" stroke="#006C97" class="geometry color_"/>
        <path fill="none" d="M140.94,72.14 L 139.93 68.26 137.51 65.11 135.94 61.19 137.51 54.05 138.26 50.24 139.93 43.26 142.35 40.67 144.77 40.67 146.04 39.29 147.19 35.43 149.6 34.19 152.02 33.53 154.44 31.57 156.86 30.1 159.28 34.8 160.69 39.29 161.7 41.22 163.89 39.29 164.11 38.68 166.53 38.25 166.92 39.29 168.95 45.08 171.3 50.24 171.37 50.38 172.9 61.19 171.37 65.87 168.95 68.92 167.17 72.14" stroke="#1589A6" class="geometry color_"/>
        <path fill="none" d="M142.28,72.14 L 139.93 63.13 138.7 61.19 139.93 54.54 140.43 50.24 142.35 45.6 144.77 45.13 147.19 42.38 149.6 41.45 152.02 40.54 154.44 40.08 156.86 41.37 159.28 41.93 161.7 45.73 164.11 49.38 166.53 46.82 167.61 50.24 168.95 54.96 171.37 59.86 171.56 61.19 171.37 61.77 168.95 64.3 166.53 68.5 165.62 72.14" stroke="#50A4B3" class="geometry color_"/>
        <path fill="none" d="M164.4,72.14 L 166.53 63.64 168 61.19 166.53 56.16 164.11 52.35 161.7 50.24 161.7 50.24 159.28 48.65 156.86 48.21 154.44 44.38 152.02 43.72 149.6 46.97 147.19 46.67 144.77 49.58 143.04 50.24 142.35 50.64 140.62 61.19 142.35 68.02 143.54 72.14" stroke="#7BBCC0" class="geometry color_"/>
        <path fill="none" d="M163.53,72.14 L 164.11 69.83 166.17 61.19 164.11 54.64 161.7 52.88 159.28 51.94 156.86 51.5 155.26 50.24 154.44 48.68 152.02 46.91 150.28 50.24 149.6 50.99 147.19 50.68 144.77 54.55 142.35 57.36 141.72 61.19 142.35 63.67 144.77 71.96 144.78 72.14" stroke="#A0D0CA" class="geometry color_"/>
        <path fill="none" d="M145.42,72.14 L 144.77 63.74 143.75 61.19 144.77 59.61 147.19 53.28 149.6 52.85 151.95 50.24 152.02 50.1 152.18 50.24 154.44 51.26 156.86 53.29 159.28 54.16 161.7 55.52 164.11 56.94 165.45 61.19 164.11 66.8 162.76 72.14" stroke="#AECDC3" class="geometry color_"/>
        <path fill="none" d="M161.99,72.14 L 164.11 63.77 164.73 61.19 164.11 59.23 161.7 58.16 159.28 56.39 156.86 55.09 154.44 52.87 152.02 52.04 149.6 54.71 147.19 55.89 145.38 61.19 146.06 72.14" stroke="#B7CBBF" class="geometry color_"/>
        <path fill="none" d="M161.08,72.14 L 161.7 63.29 162.91 61.19 161.7 60.8 159.28 58.62 156.86 56.88 154.44 54.48 152.02 53.93 149.6 56.57 147.19 58.49 146.27 61.19 146.69 72.14" stroke="#BBCBBB" class="geometry color_"/>
        <path fill="none" d="M147.47,72.14 L 147.19 62.71 147.15 61.19 147.19 61.09 149.6 58.42 152.02 55.81 154.44 56.08 156.86 58.68 159.28 60.84 159.65 61.19 160.1 72.14" stroke="#C0CAB8" class="geometry color_"/>
        <path fill="none" d="M159.16,72.14 L 157.64 61.19 156.86 60.47 154.44 57.69 152.02 57.7 149.6 60.28 148.79 61.19 148.68 72.14" stroke="#C5C8B6" class="geometry color_"/>
        <path fill="none" d="M149.78,72.14 L 150.51 61.19 152.02 59.58 154.44 59.3 156.04 61.19 156.86 63.45 158.47 72.14" stroke="#CBC7B3" class="geometry color_"/>
        <path fill="none" d="M150.51,72.14 L 152.02 61.92 153.12 61.19 154.44 60.9 154.68 61.19 156.86 67.22 157.77 72.14" stroke="#D4C5AA" class="geometry color_"/>
        <path fill="none" d="M157.07,72.14 L 156.86 70.99 154.44 63.54 152.02 66.85 151.24 72.14" stroke="#D2B497" class="geometry color_"/>
        <path fill="none" d="M156.23,72.14 L 154.44 66.41 152.02 71.77 151.97 72.14" stroke="#C4987C" class="geometry color_"/>
        <path fill="none" d="M153.19,72.14 L 154.44 69.27 155.34 72.14" stroke="#B47865" class="geometry color_"/>
      </g>
    </g>
  </g>
</g>
  <g class="guide ylabels" font-size="2.82" font-family="'PT Sans Caption','Helvetica Neue','Helvetica',sans-serif" fill="#6C606B" id="img-beac9920-33">
    <text x="119.23" y="80.31" text-anchor="end" dy="0.35em">0.0</text>
    <text x="119.23" y="61.99" text-anchor="end" dy="0.35em">0.5</text>
    <text x="119.23" y="43.66" text-anchor="end" dy="0.35em">1.0</text>
    <text x="119.23" y="25.33" text-anchor="end" dy="0.35em">1.5</text>
    <text x="119.23" y="7" text-anchor="end" dy="0.35em">2.0</text>
  </g>
  <g font-size="3.88" font-family="'PT Sans','Helvetica Neue','Helvetica',sans-serif" fill="#564A55" stroke="#000000" stroke-opacity="0.000" id="img-beac9920-34">
    <text x="110.41" y="41.66" text-anchor="middle" dy="0.35em" transform="rotate(-90, 110.41, 43.66)">s2</text>
  </g>
</g>
<g class="plotroot xscalable yscalable" id="img-beac9920-35">
  <g font-size="3.88" font-family="'PT Sans','Helvetica Neue','Helvetica',sans-serif" fill="#564A55" stroke="#000000" stroke-opacity="0.000" id="img-beac9920-36">
    <text x="51.41" y="89.99" text-anchor="middle" dy="0.6em">beta[1]</text>
  </g>
  <g class="guide xlabels" font-size="2.82" font-family="'PT Sans Caption','Helvetica Neue','Helvetica',sans-serif" fill="#6C606B" id="img-beac9920-37">
    <text x="20.63" y="83.32" text-anchor="middle" dy="0.6em">-2</text>
    <text x="32.94" y="83.32" text-anchor="middle" dy="0.6em">-1</text>
    <text x="45.25" y="83.32" text-anchor="middle" dy="0.6em">0</text>
    <text x="57.56" y="83.32" text-anchor="middle" dy="0.6em">1</text>
    <text x="69.87" y="83.32" text-anchor="middle" dy="0.6em">2</text>
    <text x="82.18" y="83.32" text-anchor="middle" dy="0.6em">3</text>
  </g>
  <g class="guide colorkey" id="img-beac9920-38">
    <g font-size="2.82" font-family="'PT Sans','Helvetica Neue','Helvetica',sans-serif" fill="#4C404B" id="img-beac9920-39">
      <text x="88.49" y="66.89" dy="0.35em">0.000</text>
      <text x="88.49" y="48.14" dy="0.35em">0.015</text>
      <text x="88.49" y="41.89" dy="0.35em">0.020</text>
      <text x="88.49" y="60.64" dy="0.35em">0.005</text>
      <text x="88.49" y="54.39" dy="0.35em">0.010</text>
      <text x="88.49" y="35.64" dy="0.35em">0.025</text>
    </g>
    <g shape-rendering="crispEdges" stroke="#000000" stroke-opacity="0.000" id="img-beac9920-40">
      <rect x="86.18" y="66.11" width="1.31" height="0.78" fill="#004D84"/>
      <rect x="86.18" y="65.33" width="1.31" height="0.78" fill="#005B8D"/>
      <rect x="86.18" y="64.55" width="1.31" height="0.78" fill="#006995"/>
      <rect x="86.18" y="63.77" width="1.31" height="0.78" fill="#00769D"/>
      <rect x="86.18" y="62.99" width="1.31" height="0.78" fill="#0083A3"/>
      <rect x="86.18" y="62.21" width="1.31" height="0.78" fill="#278FA9"/>
      <rect x="86.18" y="61.43" width="1.31" height="0.78" fill="#409BAF"/>
      <rect x="86.18" y="60.64" width="1.31" height="0.78" fill="#55A7B5"/>
      <rect x="86.18" y="59.86" width="1.31" height="0.78" fill="#69B2BA"/>
      <rect x="86.18" y="59.08" width="1.31" height="0.78" fill="#7BBCC0"/>
      <rect x="86.18" y="58.3" width="1.31" height="0.78" fill="#8DC6C5"/>
      <rect x="86.18" y="57.52" width="1.31" height="0.78" fill="#9ED0CB"/>
      <rect x="86.18" y="56.74" width="1.31" height="0.78" fill="#A5CFC7"/>
      <rect x="86.18" y="55.96" width="1.31" height="0.78" fill="#ABCEC4"/>
      <rect x="86.18" y="55.18" width="1.31" height="0.78" fill="#B1CCC2"/>
      <rect x="86.18" y="54.39" width="1.31" height="0.78" fill="#B5CCC1"/>
      <rect x="86.18" y="53.61" width="1.31" height="0.78" fill="#B7CBBF"/>
      <rect x="86.18" y="52.83" width="1.31" height="0.78" fill="#B9CBBD"/>
      <rect x="86.18" y="52.05" width="1.31" height="0.78" fill="#BBCBBB"/>
      <rect x="86.18" y="51.27" width="1.31" height="0.78" fill="#BDCABA"/>
      <rect x="86.18" y="50.49" width="1.31" height="0.78" fill="#BFCAB8"/>
      <rect x="86.18" y="49.71" width="1.31" height="0.78" fill="#C2C9B7"/>
      <rect x="86.18" y="48.93" width="1.31" height="0.78" fill="#C4C9B6"/>
      <rect x="86.18" y="48.14" width="1.31" height="0.78" fill="#C6C8B5"/>
      <rect x="86.18" y="47.36" width="1.31" height="0.78" fill="#C9C7B4"/>
      <rect x="86.18" y="46.58" width="1.31" height="0.78" fill="#CCC7B2"/>
      <rect x="86.18" y="45.8" width="1.31" height="0.78" fill="#CFC6AE"/>
      <rect x="86.18" y="45.02" width="1.31" height="0.78" fill="#D4C5AA"/>
      <rect x="86.18" y="44.24" width="1.31" height="0.78" fill="#D8C3A6"/>
      <rect x="86.18" y="43.46" width="1.31" height="0.78" fill="#D3B79A"/>
      <rect x="86.18" y="42.67" width="1.31" height="0.78" fill="#CDAB8E"/>
      <rect x="86.18" y="41.89" width="1.31" height="0.78" fill="#C89E82"/>
      <rect x="86.18" y="41.11" width="1.31" height="0.78" fill="#C19177"/>
      <rect x="86.18" y="40.33" width="1.31" height="0.78" fill="#BA836C"/>
      <rect x="86.18" y="39.55" width="1.31" height="0.78" fill="#B27563"/>
      <rect x="86.18" y="38.77" width="1.31" height="0.78" fill="#AA665A"/>
      <rect x="86.18" y="37.99" width="1.31" height="0.78" fill="#A05752"/>
      <rect x="86.18" y="37.21" width="1.31" height="0.78" fill="#96484A"/>
      <rect x="86.18" y="36.42" width="1.31" height="0.78" fill="#8B3844"/>
      <rect x="86.18" y="35.64" width="1.31" height="0.78" fill="#7E273E"/>
      <g stroke="#FFFFFF" stroke-width="0.2" id="img-beac9920-41">
        <path fill="none" d="M86.18,66.89 L 87.49 66.89"/>
        <path fill="none" d="M86.18,48.14 L 87.49 48.14"/>
        <path fill="none" d="M86.18,41.89 L 87.49 41.89"/>
        <path fill="none" d="M86.18,60.64 L 87.49 60.64"/>
        <path fill="none" d="M86.18,54.39 L 87.49 54.39"/>
        <path fill="none" d="M86.18,35.64 L 87.49 35.64"/>
      </g>
    </g>
    <g fill="#362A35" font-size="3.88" font-family="'PT Sans','Helvetica Neue','Helvetica',sans-serif" stroke="#000000" stroke-opacity="0.000" id="img-beac9920-42">
      <text x="86.18" y="31.64">Density</text>
    </g>
  </g>
<g clip-path="url(#img-beac9920-43)">
  <g id="img-beac9920-44">
    <g pointer-events="visible" opacity="1" fill="#000000" fill-opacity="0.000" stroke="#000000" stroke-opacity="0.000" class="guide background" id="img-beac9920-45">
      <rect x="18.63" y="5" width="65.55" height="77.32"/>
    </g>
    <g class="guide ygridlines xfixed" stroke-dasharray="0.5,0.5" stroke-width="0.2" stroke="#D0D0E0" id="img-beac9920-46">
      <path fill="none" d="M18.63,80.32 L 84.18 80.32"/>
      <path fill="none" d="M18.63,55.88 L 84.18 55.88"/>
      <path fill="none" d="M18.63,31.44 L 84.18 31.44"/>
      <path fill="none" d="M18.63,7 L 84.18 7"/>
    </g>
    <g class="guide xgridlines yfixed" stroke-dasharray="0.5,0.5" stroke-width="0.2" stroke="#D0D0E0" id="img-beac9920-47">
      <path fill="none" d="M20.63,5 L 20.63 82.32"/>
      <path fill="none" d="M32.94,5 L 32.94 82.32"/>
      <path fill="none" d="M45.25,5 L 45.25 82.32"/>
      <path fill="none" d="M57.56,5 L 57.56 82.32"/>
      <path fill="none" d="M69.87,5 L 69.87 82.32"/>
      <path fill="none" d="M82.18,5 L 82.18 82.32"/>
    </g>
    <g class="plotpanel" id="img-beac9920-48">
      <g stroke-width="0.3" fill="#000000" fill-opacity="0.000" stroke-dasharray="none" id="img-beac9920-49">
        <path fill="none" d="M43.33,41.61 L 43.17 41.35 41.34 38.58 40.75 37.55 38.33 35.75 38.19 35.54 36.39 32.51 35.91 31.91 34.22 29.48 33.49 28.39 32.3 26.45 31.41 23.42 31.08 21 30.9 20.39 29.19 17.35 29.7 14.32 31.08 11.59 33.49 13.41 34.96 14.32 35.91 14.53 38.33 16.08 40.75 16.29 41.32 17.35 42.71 20.39 43.17 20.63 45.09 20.39 45.59 20.16 45.69 20.39 48 23.13 48.32 23.42 49.01 26.45 50.42 27.04 52.76 29.48 52.84 29.55 55.26 32.34 55.91 32.51 57.68 33.34 58.96 35.54 60.1 37.79 60.43 38.58 62.51 40.46 63.54 41.61 64.93 43.07 66.25 44.64 67.35 45.95 69.53 47.67 69.77 48.39 70.43 50.7 72.19 52.91 73.5 53.73 73.64 56.77 74.2 59.8 74.61 60.17 77 62.83 77 65.86 77.02 66.43 77.35 68.89 77.02 69.3 74.61 70.72 72.19 70.25 69.84 68.89 69.77 68.86 67.35 67.59 65.97 65.86 64.93 64.87 62.51 64.24 61.39 62.83 60.19 59.8 60.1 59.72 57.68 58.03 55.92 56.77 55.26 56.48 52.97 53.73 52.84 53.6 50.42 51.31 49.97 50.7 48 48.39 47.39 47.67 45.6 44.64 45.59 44.63 43.33 41.61" stroke="#006C97" class="geometry color_"/>
        <path fill="none" d="M32.52,20.39 L 33.49 17.96 35.91 18.71 38.33 18.34 40.21 20.39 40.75 20.69 43.17 22.28 44.35 23.42 45.59 24.53 47.12 26.45 48 27.11 50.42 28.57 51.29 29.48 52.84 30.79 54.27 32.51 55.26 34.23 56.48 35.54 57.68 37.05 58.76 38.58 60.1 39.91 61.62 41.61 62.51 43.16 63.83 44.64 64.93 46.02 66.31 47.67 67.35 49.04 68.37 50.7 68.96 53.73 69.77 55.16 71.05 56.77 71.47 59.8 72.19 61.11 73.92 62.83 72.19 65.78 69.77 64.61 68.35 62.83 67.35 62.39 64.93 62 62.51 61.12 61.79 59.8 60.1 58.26 58.68 56.77 57.68 55.87 55.28 53.73 55.26 53.7 52.84 51.22 52.35 50.7 50.42 49.06 49.28 47.67 48 46.12 46.95 44.64 45.59 43.13 44.45 41.61 43.17 39.66 42.45 38.58 40.75 35.6 40.68 35.54 38.7 32.51 38.33 31.88 36.42 29.48 35.91 29.05 34.07 26.45 33.63 23.42 33.49 23.14 32.52 20.39" stroke="#1689A6" class="geometry color_"/>
        <path fill="none" d="M37.77,20.39 L 35.91 22.98 35.68 23.42 35.54 26.45 35.91 26.98 38.33 29.04 38.45 29.48 40.46 32.51 40.75 32.95 41.54 35.54 43.17 38.12 43.38 38.58 45.56 41.61 45.59 41.64 48 44.45 48.14 44.64 50.42 47.47 50.55 47.67 52.84 50.26 54.38 50.7 55.26 51.63 56.67 53.73 57.68 54.63 60.07 56.77 60.1 56.8 62.51 59.18 64.93 59.26 66.09 59.8 67.35 60.65 69.77 60.41 70.01 59.8 69.77 59 68.94 56.77 67.35 53.82 67.33 53.73 66.52 50.7 64.93 48.63 64.57 47.67 62.51 45.09 62.29 44.64 60.31 41.61 60.1 41.37 57.68 38.83 57.5 38.58 55.26 35.76 55.12 35.54 53.25 32.51 52.84 32.02 50.42 29.92 49.94 29.48 48 28.01 45.9 26.45 45.59 26.06 43.17 23.74 42.86 23.42 40.75 21.57 38.66 20.39 38.33 20.03 37.77 20.39" stroke="#51A4B4" class="geometry color_"/>
        <path fill="none" d="M38.3,23.42 L 38.33 23.37 40.75 22.45 41.85 23.42 43.17 24.78 44.82 26.45 45.59 26.97 48 28.92 48.75 29.48 50.42 31.01 52.11 32.51 52.84 32.99 54.58 35.54 55.26 36.6 56.84 38.58 57.68 39.79 59.36 41.61 60.1 42.39 61.65 44.64 62.51 46.35 63.57 47.67 64.78 50.7 64.93 50.95 66.66 53.73 67.1 56.77 64.93 58.07 62.51 58.06 61.21 56.77 60.1 55.85 57.94 53.73 57.68 53.53 55.57 50.7 55.26 50.45 52.84 49.69 51.06 47.67 50.42 46.68 48.77 44.64 48 43.57 46.32 41.61 45.59 40.79 43.99 38.58 43.17 36.83 42.35 35.54 41.29 32.51 40.75 31.89 38.99 29.48 38.33 26.96 37.73 26.45 38.3 23.42" stroke="#7CBDC0" class="geometry color_"/>
        <path fill="none" d="M44.59,38.58 L 45.59 39.96 47.08 41.61 48 42.69 49.41 44.64 50.42 45.9 51.56 47.67 52.84 49.12 55.26 49.99 56.14 50.7 57.68 52.76 58.88 53.73 60.1 54.92 62.35 56.77 62.51 56.93 64.93 56.88 65.12 56.77 65.98 53.73 64.93 52.04 64.11 50.7 62.56 47.67 62.51 47.61 61 44.64 60.1 43.32 58.47 41.61 57.68 40.75 56.17 38.58 55.26 37.43 54.04 35.54 52.84 33.78 50.89 32.51 50.42 32.1 48 29.73 47.69 29.48 45.59 27.68 43.8 26.45 43.17 25.81 40.85 23.42 40.75 23.33 40.53 23.42 39.32 26.45 39.54 29.48 40.75 31.14 41.93 32.51 43.17 35.54 43.17 35.55 44.59 38.58" stroke="#A0D0CA" class="geometry color_"/>
        <path fill="none" d="M64.93,54.9 L 62.51 55.39 60.1 53.99 59.83 53.73 57.68 52 56.71 50.7 55.26 49.53 52.84 48.55 52.06 47.67 50.42 45.12 50.04 44.64 48 41.81 47.83 41.61 45.59 39.12 45.19 38.58 43.6 35.54 43.17 33.98 42.57 32.51 40.75 30.39 40.08 29.48 40.63 26.45 40.75 26.18 41.2 26.45 43.17 27.07 45.59 28.39 46.87 29.48 48 30.4 50.03 32.51 50.42 32.76 52.84 34.58 53.5 35.54 55.26 38.27 55.51 38.58 57.65 41.61 57.68 41.66 60.1 44.25 60.36 44.64 62.03 47.67 62.51 48.92 63.43 50.7 64.93 53.12 65.31 53.73 64.93 54.9" stroke="#AFCDC3" class="geometry color_"/>
        <path fill="none" d="M50.61,44.64 L 50.42 44.49 48.23 41.61 48 41.12 45.78 38.58 45.59 38.31 44.03 35.54 43.2 32.51 43.17 32.18 40.75 29.65 40.63 29.48 40.75 28.89 43.17 28.67 45.59 29.09 46.04 29.48 48 31.07 49.39 32.51 50.42 33.15 52.84 35.37 52.96 35.54 55.08 38.58 55.26 38.84 57.33 41.61 57.68 42.21 59.82 44.64 60.1 45.17 61.52 47.67 62.51 50.23 62.76 50.7 62.68 53.73 62.51 53.79 62.41 53.73 60.1 52.37 57.68 51.23 57.28 50.7 55.26 49.07 52.84 47.99 52.56 47.67 50.61 44.64" stroke="#B7CBBF" class="geometry color_"/>
        <path fill="none" d="M52.52,35.54 L 52.84 35.85 54.8 38.58 55.26 39.26 57.02 41.61 57.68 42.75 59.34 44.64 60.1 46.07 61 47.67 60.1 50.51 57.68 50.48 55.26 48.61 53.27 47.67 52.84 47.34 51.09 44.64 50.42 44.1 48.53 41.61 48 40.48 46.33 38.58 45.59 37.55 44.46 35.54 43.77 32.51 45.59 29.85 48 31.74 48.74 32.51 50.42 33.55 52.52 35.54" stroke="#BBCBBB" class="geometry color_"/>
        <path fill="none" d="M52.11,35.54 L 52.84 36.25 54.52 38.58 55.26 39.68 56.7 41.61 57.68 43.3 58.86 44.64 60.1 46.98 60.49 47.67 60.1 48.91 57.68 49.77 55.26 48.15 54.24 47.67 52.84 46.6 51.57 44.64 50.42 43.71 48.82 41.61 48 39.85 46.89 38.58 45.59 36.78 44.89 35.54 44.33 32.51 45.59 30.67 48 32.41 48.1 32.51 50.42 33.94 52.11 35.54" stroke="#C0C9B8" class="geometry color_"/>
        <path fill="none" d="M51.69,35.54 L 52.84 36.64 54.23 38.58 55.26 40.1 56.39 41.61 57.68 43.84 58.38 44.64 59.84 47.67 57.68 49.06 55.26 47.7 55.21 47.67 52.84 45.86 52.05 44.64 50.42 43.33 49.11 41.61 48 39.21 47.45 38.58 45.59 36.02 45.32 35.54 44.89 32.51 45.59 31.5 47.02 32.51 48 33.03 50.42 34.33 51.69 35.54" stroke="#C5C8B5" class="geometry color_"/>
        <path fill="none" d="M51.28,35.54 L 52.84 37.03 53.95 38.58 55.26 40.52 56.07 41.61 57.68 44.38 57.9 44.64 58.73 47.67 57.68 48.34 56.47 47.67 55.26 47.12 52.84 45.13 52.53 44.64 50.42 42.94 49.41 41.61 48.01 38.58 48 38.57 45.85 35.54 45.59 33.66 45.45 32.51 45.59 32.32 45.86 32.51 48 33.64 50.42 34.73 51.28 35.54" stroke="#CBC7B2" class="geometry color_"/>
        <path fill="none" d="M50.87,35.54 L 52.84 37.43 53.67 38.58 55.26 40.94 55.76 41.61 57.34 44.64 55.26 46.54 53.07 44.64 52.84 44.4 50.42 42.55 49.7 41.61 48.55 38.58 48 37.6 46.54 35.54 48 34.25 50.42 35.12 50.87 35.54" stroke="#D4C5AA" class="geometry color_"/>
        <path fill="none" d="M50.45,35.54 L 52.84 37.82 53.38 38.58 55.26 41.36 55.45 41.61 56.71 44.64 55.26 45.97 53.73 44.64 52.84 43.7 50.42 42.17 50 41.61 49.1 38.58 48 36.63 47.23 35.54 48 34.86 50.42 35.52 50.45 35.54" stroke="#D1B395" class="geometry color_"/>
        <path fill="none" d="M52.84,38.22 L 50.42 36.73 49.64 38.58 50.29 41.61 50.42 41.78 52.84 43 54.4 44.64 55.26 45.39 56.08 44.64 55.26 42.33 54.85 41.61 53.1 38.58 52.84 38.22" stroke="#C4967B" class="geometry color_"/>
        <path fill="none" d="M47.93,35.54 L 48 35.48 48.27 35.54 48 35.65 47.93 35.54" stroke="#C4967B" class="geometry color_"/>
        <path fill="none" d="M50.19,38.58 L 50.42 39.9 51.29 41.61 52.84 42.31 53.85 41.61 52.84 38.82 52.44 38.58 50.42 38.02 50.19 38.58" stroke="#B37664" class="geometry color_"/>
        <path fill="none" d="M55.06,44.64 L 55.26 44.12 55.44 44.64 55.26 44.81 55.06 44.64" stroke="#B37664" class="geometry color_"/>
      </g>
    </g>
  </g>
</g>
  <g class="guide ylabels" font-size="2.82" font-family="'PT Sans Caption','Helvetica Neue','Helvetica',sans-serif" fill="#6C606B" id="img-beac9920-50">
    <text x="17.63" y="80.32" text-anchor="end" dy="0.35em">0.0</text>
    <text x="17.63" y="55.88" text-anchor="end" dy="0.35em">0.5</text>
    <text x="17.63" y="31.44" text-anchor="end" dy="0.35em">1.0</text>
    <text x="17.63" y="7" text-anchor="end" dy="0.35em">1.5</text>
  </g>
  <g font-size="3.88" font-family="'PT Sans','Helvetica Neue','Helvetica',sans-serif" fill="#564A55" stroke="#000000" stroke-opacity="0.000" id="img-beac9920-51">
    <text x="8.81" y="41.66" text-anchor="middle" dy="0.35em" transform="rotate(-90, 8.81, 43.66)">beta[2]</text>
  </g>
</g>
<defs>
  <clipPath id="img-beac9920-26">
  <path d="M120.23,5 L 185.78 5 185.78 82.32 120.23 82.32" />
</clipPath>
  <clipPath id="img-beac9920-9">
  <path d="M18.63,106.6 L 84.18 106.6 84.18 183.92 18.63 183.92" />
</clipPath>
  <clipPath id="img-beac9920-43">
  <path d="M18.63,5 L 84.18 5 84.18 82.32 18.63 82.32" />
</clipPath>
</defs>
</svg>
