<?xml version="1.0" encoding="UTF-8"?>
<svg xmlns="http://www.w3.org/2000/svg"
     xmlns:xlink="http://www.w3.org/1999/xlink"
     xmlns:gadfly="http://www.gadflyjl.org/ns"
     version="1.2"
     width="203.2mm" height="203.2mm" viewBox="0 0 203.2 203.2"
     stroke="none"
     fill="#000000"
     stroke-width="0.3"
     font-size="3.88"
>
<g class="plotroot xscalable yscalable" id="img-c877ab0a-1">
  <g font-size="3.88" font-family="'PT Sans','Helvetica Neue','Helvetica',sans-serif" fill="#564A55" stroke="#000000" stroke-opacity="0.000" id="img-c877ab0a-2">
    <text x="51.41" y="191.59" text-anchor="middle" dy="0.6em">beta[2]</text>
  </g>
  <g class="guide xlabels" font-size="2.82" font-family="'PT Sans Caption','Helvetica Neue','Helvetica',sans-serif" fill="#6C606B" id="img-c877ab0a-3">
    <text x="20.63" y="184.92" text-anchor="middle" dy="0.6em">0.0</text>
    <text x="41.15" y="184.92" text-anchor="middle" dy="0.6em">0.5</text>
    <text x="61.66" y="184.92" text-anchor="middle" dy="0.6em">1.0</text>
    <text x="82.18" y="184.92" text-anchor="middle" dy="0.6em">1.5</text>
  </g>
  <g class="guide colorkey" id="img-c877ab0a-4">
    <g font-size="2.82" font-family="'PT Sans','Helvetica Neue','Helvetica',sans-serif" fill="#4C404B" id="img-c877ab0a-5">
      <text x="88.49" y="152.87" dy="0.35em">0.050</text>
      <text x="88.49" y="159.7" dy="0.35em">0.025</text>
      <text x="88.49" y="139.21" dy="0.35em">0.100</text>
      <text x="88.49" y="166.52" dy="0.35em">0.000</text>
      <text x="88.49" y="146.04" dy="0.35em">0.075</text>
    </g>
    <g shape-rendering="crispEdges" stroke="#000000" stroke-opacity="0.000" id="img-c877ab0a-6">
      <rect x="86.18" y="165.84" width="1.31" height="0.68" fill="#004D84"/>
      <rect x="86.18" y="165.16" width="1.31" height="0.68" fill="#005B8D"/>
      <rect x="86.18" y="164.48" width="1.31" height="0.68" fill="#006995"/>
      <rect x="86.18" y="163.79" width="1.31" height="0.68" fill="#00769D"/>
      <rect x="86.18" y="163.11" width="1.31" height="0.68" fill="#0083A3"/>
      <rect x="86.18" y="162.43" width="1.31" height="0.68" fill="#278FA9"/>
      <rect x="86.18" y="161.75" width="1.31" height="0.68" fill="#409BAF"/>
      <rect x="86.18" y="161.06" width="1.31" height="0.68" fill="#55A7B5"/>
      <rect x="86.18" y="160.38" width="1.31" height="0.68" fill="#69B2BA"/>
      <rect x="86.18" y="159.7" width="1.31" height="0.68" fill="#7BBCC0"/>
      <rect x="86.18" y="159.01" width="1.31" height="0.68" fill="#8DC6C5"/>
      <rect x="86.18" y="158.33" width="1.31" height="0.68" fill="#9ED0CB"/>
      <rect x="86.18" y="157.65" width="1.31" height="0.68" fill="#A5CFC7"/>
      <rect x="86.18" y="156.97" width="1.31" height="0.68" fill="#ABCEC4"/>
      <rect x="86.18" y="156.28" width="1.31" height="0.68" fill="#B1CCC2"/>
      <rect x="86.18" y="155.6" width="1.31" height="0.68" fill="#B5CCC1"/>
      <rect x="86.18" y="154.92" width="1.31" height="0.68" fill="#B7CBBF"/>
      <rect x="86.18" y="154.23" width="1.31" height="0.68" fill="#B9CBBD"/>
      <rect x="86.18" y="153.55" width="1.31" height="0.68" fill="#BBCBBB"/>
      <rect x="86.18" y="152.87" width="1.31" height="0.68" fill="#BDCABA"/>
      <rect x="86.18" y="152.19" width="1.31" height="0.68" fill="#BFCAB8"/>
      <rect x="86.18" y="151.5" width="1.31" height="0.68" fill="#C2C9B7"/>
      <rect x="86.18" y="150.82" width="1.31" height="0.68" fill="#C4C9B6"/>
      <rect x="86.18" y="150.14" width="1.31" height="0.68" fill="#C6C8B5"/>
      <rect x="86.18" y="149.46" width="1.31" height="0.68" fill="#C9C7B4"/>
      <rect x="86.18" y="148.77" width="1.31" height="0.68" fill="#CCC7B2"/>
      <rect x="86.18" y="148.09" width="1.31" height="0.68" fill="#CFC6AE"/>
      <rect x="86.18" y="147.41" width="1.31" height="0.68" fill="#D4C5AA"/>
      <rect x="86.18" y="146.72" width="1.31" height="0.68" fill="#D8C3A6"/>
      <rect x="86.18" y="146.04" width="1.31" height="0.68" fill="#D3B79A"/>
      <rect x="86.18" y="145.36" width="1.31" height="0.68" fill="#CDAB8E"/>
      <rect x="86.18" y="144.68" width="1.31" height="0.68" fill="#C89E82"/>
      <rect x="86.18" y="143.99" width="1.31" height="0.68" fill="#C19177"/>
      <rect x="86.18" y="143.31" width="1.31" height="0.68" fill="#BA836C"/>
      <rect x="86.18" y="142.63" width="1.31" height="0.68" fill="#B27563"/>
      <rect x="86.18" y="141.94" width="1.31" height="0.68" fill="#AA665A"/>
      <rect x="86.18" y="141.26" width="1.31" height="0.68" fill="#A05752"/>
      <rect x="86.18" y="140.58" width="1.31" height="0.68" fill="#96484A"/>
      <rect x="86.18" y="139.9" width="1.31" height="0.68" fill="#8B3844"/>
      <rect x="86.18" y="139.21" width="1.31" height="0.68" fill="#7E273E"/>
      <g stroke="#FFFFFF" stroke-width="0.2" id="img-c877ab0a-7">
        <path fill="none" d="M86.18,152.87 L 87.49 152.87"/>
        <path fill="none" d="M86.18,159.7 L 87.49 159.7"/>
        <path fill="none" d="M86.18,139.21 L 87.49 139.21"/>
        <path fill="none" d="M86.18,166.52 L 87.49 166.52"/>
        <path fill="none" d="M86.18,146.04 L 87.49 146.04"/>
      </g>
    </g>
    <g fill="#362A35" font-size="3.88" font-family="'PT Sans','Helvetica Neue','Helvetica',sans-serif" stroke="#000000" stroke-opacity="0.000" id="img-c877ab0a-8">
      <text x="86.18" y="135.21">Density</text>
    </g>
  </g>
<g clip-path="url(#img-c877ab0a-9)">
  <g id="img-c877ab0a-10">
    <g pointer-events="visible" opacity="1" fill="#000000" fill-opacity="0.000" stroke="#000000" stroke-opacity="0.000" class="guide background" id="img-c877ab0a-11">
      <rect x="18.63" y="106.6" width="65.55" height="77.32"/>
    </g>
    <g class="guide ygridlines xfixed" stroke-dasharray="0.5,0.5" stroke-width="0.2" stroke="#D0D0E0" id="img-c877ab0a-12">
      <path fill="none" d="M18.63,181.91 L 84.18 181.91"/>
      <path fill="none" d="M18.63,163.59 L 84.18 163.59"/>
      <path fill="none" d="M18.63,145.26 L 84.18 145.26"/>
      <path fill="none" d="M18.63,126.93 L 84.18 126.93"/>
      <path fill="none" d="M18.63,108.6 L 84.18 108.6"/>
    </g>
    <g class="guide xgridlines yfixed" stroke-dasharray="0.5,0.5" stroke-width="0.2" stroke="#D0D0E0" id="img-c877ab0a-13">
      <path fill="none" d="M20.63,106.6 L 20.63 183.92"/>
      <path fill="none" d="M41.15,106.6 L 41.15 183.92"/>
      <path fill="none" d="M61.66,106.6 L 61.66 183.92"/>
      <path fill="none" d="M82.18,106.6 L 82.18 183.92"/>
    </g>
    <g class="plotpanel" id="img-c877ab0a-14">
      <g stroke-width="0.3" fill="#000000" fill-opacity="0.000" stroke-dasharray="none" id="img-c877ab0a-15">
        <path fill="none" d="M70.92,171.61 L 72.95 163.85 74.9 157.3 74.17 143 72.95 139.55 69.78 128.69 68.41 123.47 63.88 121.86 59.34 119.29 54.8 118.78 50.26 118.67 45.72 114.7 41.19 124.35 39.32 128.69 36.65 132.31 32.94 143 32.11 152.9 31.76 157.3 32.11 158.2 36.3 171.61" class="geometry color_" stroke="#006A96"/>
        <path fill="none" d="M38.2,171.61 L 36.65 161.61 35.3 157.3 36.65 150.55 39.16 143 41.19 138.77 45.72 134.6 50.26 132.03 54.8 133.82 59.34 132.95 63.88 137.89 66.41 143 68.41 146.71 71.14 157.3 68.41 167.34 68.02 171.61" class="geometry color_" stroke="#0385A4"/>
        <path fill="none" d="M66.91,171.61 L 68.09 157.3 63.88 146.42 59.34 143 59.32 143 54.8 141.53 50.26 140.69 47.2 143 45.72 143.48 41.19 148.26 38.25 157.3 39.86 171.61" class="geometry color_" stroke="#479FB1"/>
        <path fill="none" d="M41.35,171.61 L 41.19 161.81 40.94 157.3 41.19 156.54 45.72 147.26 50.26 145.26 54.8 145.2 59.34 146.39 63.88 151.91 65.96 157.3 65.8 171.61" class="geometry color_" stroke="#70B6BC"/>
        <path fill="none" d="M42.17,171.61 L 42.79 157.3 45.72 151.03 50.26 148.34 54.8 147.92 59.34 149.78 63.84 157.3 63.88 157.65 64.7 171.61" class="geometry color_" stroke="#95CBC8"/>
        <path fill="none" d="M43,171.61 L 44.56 157.3 45.72 154.81 50.26 151.43 54.8 150.64 59.34 153.17 61.81 157.3 63.66 171.61" class="geometry color_" stroke="#A9CEC6"/>
        <path fill="none" d="M43.82,171.61 L 45.72 159.14 46.97 157.3 50.26 154.51 54.8 153.36 59.34 156.56 59.78 157.3 62.82 171.61" class="geometry color_" stroke="#B5CCC1"/>
        <path fill="none" d="M61.99,171.61 L 59.34 160.14 56.46 157.3 54.8 156.08 51.05 157.3 50.26 157.51 45.72 164.52 44.64 171.61" class="geometry color_" stroke="#B8CBBD"/>
        <path fill="none" d="M61.15,171.61 L 59.34 163.77 54.8 158.34 50.26 159.72 45.72 169.91 45.47 171.61" class="geometry color_" stroke="#BDCABA"/>
        <path fill="none" d="M60.31,171.61 L 59.34 167.4 54.8 160.24 50.26 161.92 46.34 171.61" class="geometry color_" stroke="#C2C9B7"/>
        <path fill="none" d="M59.47,171.61 L 59.34 171.04 54.8 162.13 50.26 164.12 47.23 171.61" class="geometry color_" stroke="#C7C8B5"/>
        <path fill="none" d="M48.12,171.61 L 50.26 166.33 54.8 164.03 58.55 171.61" class="geometry color_" stroke="#CCC7B1"/>
        <path fill="none" d="M49.01,171.61 L 50.26 168.53 54.8 165.92 57.61 171.61" class="geometry color_" stroke="#D5C4A9"/>
        <path fill="none" d="M49.91,171.61 L 50.26 170.73 54.8 167.82 56.68 171.61" class="geometry color_" stroke="#D1B395"/>
        <path fill="none" d="M51.97,171.61 L 54.8 169.71 55.74 171.61" class="geometry color_" stroke="#C5987C"/>
      </g>
    </g>
  </g>
</g>
  <g class="guide ylabels" font-size="2.82" font-family="'PT Sans Caption','Helvetica Neue','Helvetica',sans-serif" fill="#6C606B" id="img-c877ab0a-16">
    <text x="17.63" y="181.91" text-anchor="end" dy="0.35em">0.0</text>
    <text x="17.63" y="163.59" text-anchor="end" dy="0.35em">0.5</text>
    <text x="17.63" y="145.26" text-anchor="end" dy="0.35em">1.0</text>
    <text x="17.63" y="126.93" text-anchor="end" dy="0.35em">1.5</text>
    <text x="17.63" y="108.6" text-anchor="end" dy="0.35em">2.0</text>
  </g>
  <g font-size="3.88" font-family="'PT Sans','Helvetica Neue','Helvetica',sans-serif" fill="#564A55" stroke="#000000" stroke-opacity="0.000" id="img-c877ab0a-17">
    <text x="8.81" y="143.26" text-anchor="middle" dy="0.35em" transform="rotate(-90, 8.81, 145.26)">s2</text>
  </g>
</g>
<g class="plotroot xscalable yscalable" id="img-c877ab0a-18">
  <g font-size="3.88" font-family="'PT Sans','Helvetica Neue','Helvetica',sans-serif" fill="#564A55" stroke="#000000" stroke-opacity="0.000" id="img-c877ab0a-19">
    <text x="153.01" y="89.99" text-anchor="middle" dy="0.6em">beta[1]</text>
  </g>
  <g class="guide xlabels" font-size="2.82" font-family="'PT Sans Caption','Helvetica Neue','Helvetica',sans-serif" fill="#6C606B" id="img-c877ab0a-20">
    <text x="122.23" y="83.32" text-anchor="middle" dy="0.6em">-2</text>
    <text x="134.54" y="83.32" text-anchor="middle" dy="0.6em">-1</text>
    <text x="146.85" y="83.32" text-anchor="middle" dy="0.6em">0</text>
    <text x="159.16" y="83.32" text-anchor="middle" dy="0.6em">1</text>
    <text x="171.47" y="83.32" text-anchor="middle" dy="0.6em">2</text>
    <text x="183.78" y="83.32" text-anchor="middle" dy="0.6em">3</text>
  </g>
  <g class="guide colorkey" id="img-c877ab0a-21">
    <g font-size="2.82" font-family="'PT Sans','Helvetica Neue','Helvetica',sans-serif" fill="#4C404B" id="img-c877ab0a-22">
      <text x="190.09" y="51.27" dy="0.35em">0.05</text>
      <text x="190.09" y="41.55" dy="0.35em">0.10</text>
      <text x="190.09" y="60.98" dy="0.35em">0.00</text>
    </g>
    <g shape-rendering="crispEdges" stroke="#000000" stroke-opacity="0.000" id="img-c877ab0a-23">
      <rect x="187.78" y="60.5" width="1.31" height="0.49" fill="#004D84"/>
      <rect x="187.78" y="60.01" width="1.31" height="0.49" fill="#005B8D"/>
      <rect x="187.78" y="59.53" width="1.31" height="0.49" fill="#006995"/>
      <rect x="187.78" y="59.04" width="1.31" height="0.49" fill="#00769D"/>
      <rect x="187.78" y="58.56" width="1.31" height="0.49" fill="#0083A3"/>
      <rect x="187.78" y="58.07" width="1.31" height="0.49" fill="#278FA9"/>
      <rect x="187.78" y="57.58" width="1.31" height="0.49" fill="#409BAF"/>
      <rect x="187.78" y="57.1" width="1.31" height="0.49" fill="#55A7B5"/>
      <rect x="187.78" y="56.61" width="1.31" height="0.49" fill="#69B2BA"/>
      <rect x="187.78" y="56.13" width="1.31" height="0.49" fill="#7BBCC0"/>
      <rect x="187.78" y="55.64" width="1.31" height="0.49" fill="#8DC6C5"/>
      <rect x="187.78" y="55.16" width="1.31" height="0.49" fill="#9ED0CB"/>
      <rect x="187.78" y="54.67" width="1.31" height="0.49" fill="#A5CFC7"/>
      <rect x="187.78" y="54.18" width="1.31" height="0.49" fill="#ABCEC4"/>
      <rect x="187.78" y="53.7" width="1.31" height="0.49" fill="#B1CCC2"/>
      <rect x="187.78" y="53.21" width="1.31" height="0.49" fill="#B5CCC1"/>
      <rect x="187.78" y="52.73" width="1.31" height="0.49" fill="#B7CBBF"/>
      <rect x="187.78" y="52.24" width="1.31" height="0.49" fill="#B9CBBD"/>
      <rect x="187.78" y="51.75" width="1.31" height="0.49" fill="#BBCBBB"/>
      <rect x="187.78" y="51.27" width="1.31" height="0.49" fill="#BDCABA"/>
      <rect x="187.78" y="50.78" width="1.31" height="0.49" fill="#BFCAB8"/>
      <rect x="187.78" y="50.3" width="1.31" height="0.49" fill="#C2C9B7"/>
      <rect x="187.78" y="49.81" width="1.31" height="0.49" fill="#C4C9B6"/>
      <rect x="187.78" y="49.33" width="1.31" height="0.49" fill="#C6C8B5"/>
      <rect x="187.78" y="48.84" width="1.31" height="0.49" fill="#C9C7B4"/>
      <rect x="187.78" y="48.35" width="1.31" height="0.49" fill="#CCC7B2"/>
      <rect x="187.78" y="47.87" width="1.31" height="0.49" fill="#CFC6AE"/>
      <rect x="187.78" y="47.38" width="1.31" height="0.49" fill="#D4C5AA"/>
      <rect x="187.78" y="46.9" width="1.31" height="0.49" fill="#D8C3A6"/>
      <rect x="187.78" y="46.41" width="1.31" height="0.49" fill="#D3B79A"/>
      <rect x="187.78" y="45.93" width="1.31" height="0.49" fill="#CDAB8E"/>
      <rect x="187.78" y="45.44" width="1.31" height="0.49" fill="#C89E82"/>
      <rect x="187.78" y="44.95" width="1.31" height="0.49" fill="#C19177"/>
      <rect x="187.78" y="44.47" width="1.31" height="0.49" fill="#BA836C"/>
      <rect x="187.78" y="43.98" width="1.31" height="0.49" fill="#B27563"/>
      <rect x="187.78" y="43.5" width="1.31" height="0.49" fill="#AA665A"/>
      <rect x="187.78" y="43.01" width="1.31" height="0.49" fill="#A05752"/>
      <rect x="187.78" y="42.52" width="1.31" height="0.49" fill="#96484A"/>
      <rect x="187.78" y="42.04" width="1.31" height="0.49" fill="#8B3844"/>
      <rect x="187.78" y="41.55" width="1.31" height="0.49" fill="#7E273E"/>
      <g stroke="#FFFFFF" stroke-width="0.2" id="img-c877ab0a-24">
        <path fill="none" d="M187.78,51.27 L 189.09 51.27"/>
        <path fill="none" d="M187.78,41.55 L 189.09 41.55"/>
        <path fill="none" d="M187.78,60.98 L 189.09 60.98"/>
      </g>
    </g>
    <g fill="#362A35" font-size="3.88" font-family="'PT Sans','Helvetica Neue','Helvetica',sans-serif" stroke="#000000" stroke-opacity="0.000" id="img-c877ab0a-25">
      <text x="187.78" y="37.55">Density</text>
    </g>
  </g>
<g clip-path="url(#img-c877ab0a-26)">
  <g id="img-c877ab0a-27">
    <g pointer-events="visible" opacity="1" fill="#000000" fill-opacity="0.000" stroke="#000000" stroke-opacity="0.000" class="guide background" id="img-c877ab0a-28">
      <rect x="120.23" y="5" width="65.55" height="77.32"/>
    </g>
    <g class="guide ygridlines xfixed" stroke-dasharray="0.5,0.5" stroke-width="0.2" stroke="#D0D0E0" id="img-c877ab0a-29">
      <path fill="none" d="M120.23,80.31 L 185.78 80.31"/>
      <path fill="none" d="M120.23,61.99 L 185.78 61.99"/>
      <path fill="none" d="M120.23,43.66 L 185.78 43.66"/>
      <path fill="none" d="M120.23,25.33 L 185.78 25.33"/>
      <path fill="none" d="M120.23,7 L 185.78 7"/>
    </g>
    <g class="guide xgridlines yfixed" stroke-dasharray="0.5,0.5" stroke-width="0.2" stroke="#D0D0E0" id="img-c877ab0a-30">
      <path fill="none" d="M122.23,5 L 122.23 82.32"/>
      <path fill="none" d="M134.54,5 L 134.54 82.32"/>
      <path fill="none" d="M146.85,5 L 146.85 82.32"/>
      <path fill="none" d="M159.16,5 L 159.16 82.32"/>
      <path fill="none" d="M171.47,5 L 171.47 82.32"/>
      <path fill="none" d="M183.78,5 L 183.78 82.32"/>
    </g>
    <g class="plotpanel" id="img-c877ab0a-31">
      <g stroke-width="0.3" fill="#000000" fill-opacity="0.000" stroke-dasharray="none" id="img-c877ab0a-32">
        <path fill="none" d="M136.93,70.01 L 133.8 56.5 133.49 55.7 133.8 46.4 133.96 41.4 138.32 30.31 140 27.09 142.83 20.3 147.35 17.05 151.86 16.99 156.38 15.89 160.89 17.29 165.41 20.79 168.79 27.09 169.92 28.81 173.57 41.4 174.44 45.31 176.37 55.7 174.44 60.96 171.33 70.01" class="geometry color_" stroke="#006A96"/>
        <path fill="none" d="M169.06,70.01 L 169.92 61.38 171.86 55.7 169.92 47.91 167.74 41.4 165.41 36.34 160.89 32.06 156.38 31.06 151.86 30.31 147.35 32.74 142.83 41.27 142.76 41.4 138.32 53.63 138.01 55.7 138.32 56.99 139.22 70.01" class="geometry color_" stroke="#0786A5"/>
        <path fill="none" d="M140.51,70.01 L 139.97 55.7 142.83 46.85 147.14 41.4 147.35 41.01 151.86 39.67 156.38 39.51 160.89 40.77 161.38 41.4 165.41 44.9 168.89 55.7 167.81 70.01" class="geometry color_" stroke="#49A0B1"/>
        <path fill="none" d="M141.81,70.01 L 141.74 55.7 142.83 52.33 147.35 45.31 151.86 43.88 156.38 43.53 160.89 44.79 165.41 50.81 166.98 55.7 166.56 70.01" class="geometry color_" stroke="#72B7BD"/>
        <path fill="none" d="M165.35,70.01 L 165.05 55.7 160.89 48.45 156.38 46.27 151.86 46.93 147.35 49.41 143.74 55.7 143.06 70.01" class="geometry color_" stroke="#97CCC9"/>
        <path fill="none" d="M164.49,70.01 L 162.95 55.7 160.89 52.1 156.38 49.01 151.86 49.98 147.35 53.52 146.09 55.7 144.15 70.01" class="geometry color_" stroke="#AACEC5"/>
        <path fill="none" d="M145.24,70.01 L 147.35 58.48 148.92 55.7 151.86 53.03 156.38 51.76 160.84 55.7 160.89 55.77 163.64 70.01" class="geometry color_" stroke="#B5CCC1"/>
        <path fill="none" d="M146.32,70.01 L 147.35 64.42 151.86 55.96 152.87 55.7 156.38 54.5 157.74 55.7 160.89 60.19 162.79 70.01" class="geometry color_" stroke="#B9CBBD"/>
        <path fill="none" d="M147.39,70.01 L 151.86 58 156.38 56.76 160.89 64.62 161.93 70.01" class="geometry color_" stroke="#BDCABA"/>
        <path fill="none" d="M148.15,70.01 L 151.86 60.05 156.38 58.66 160.89 69.04 161.08 70.01" class="geometry color_" stroke="#C2C9B7"/>
        <path fill="none" d="M148.92,70.01 L 151.86 62.09 156.38 60.55 160.28 70.01" class="geometry color_" stroke="#C7C8B5"/>
        <path fill="none" d="M149.68,70.01 L 151.86 64.14 156.38 62.44 159.5 70.01" class="geometry color_" stroke="#CDC6B0"/>
        <path fill="none" d="M150.44,70.01 L 151.86 66.18 156.38 64.33 158.72 70.01" class="geometry color_" stroke="#D7C4A8"/>
        <path fill="none" d="M151.2,70.01 L 151.86 68.23 156.38 66.23 157.94 70.01" class="geometry color_" stroke="#CFAE90"/>
        <path fill="none" d="M152.38,70.01 L 156.38 68.12 157.16 70.01" class="geometry color_" stroke="#C29278"/>
      </g>
    </g>
  </g>
</g>
  <g class="guide ylabels" font-size="2.82" font-family="'PT Sans Caption','Helvetica Neue','Helvetica',sans-serif" fill="#6C606B" id="img-c877ab0a-33">
    <text x="119.23" y="80.31" text-anchor="end" dy="0.35em">0.0</text>
    <text x="119.23" y="61.99" text-anchor="end" dy="0.35em">0.5</text>
    <text x="119.23" y="43.66" text-anchor="end" dy="0.35em">1.0</text>
    <text x="119.23" y="25.33" text-anchor="end" dy="0.35em">1.5</text>
    <text x="119.23" y="7" text-anchor="end" dy="0.35em">2.0</text>
  </g>
  <g font-size="3.88" font-family="'PT Sans','Helvetica Neue','Helvetica',sans-serif" fill="#564A55" stroke="#000000" stroke-opacity="0.000" id="img-c877ab0a-34">
    <text x="110.41" y="41.66" text-anchor="middle" dy="0.35em" transform="rotate(-90, 110.41, 43.66)">s2</text>
  </g>
</g>
<g class="plotroot xscalable yscalable" id="img-c877ab0a-35">
  <g font-size="3.88" font-family="'PT Sans','Helvetica Neue','Helvetica',sans-serif" fill="#564A55" stroke="#000000" stroke-opacity="0.000" id="img-c877ab0a-36">
    <text x="51.41" y="89.99" text-anchor="middle" dy="0.6em">beta[1]</text>
  </g>
  <g class="guide xlabels" font-size="2.82" font-family="'PT Sans Caption','Helvetica Neue','Helvetica',sans-serif" fill="#6C606B" id="img-c877ab0a-37">
    <text x="20.63" y="83.32" text-anchor="middle" dy="0.6em">-2</text>
    <text x="32.94" y="83.32" text-anchor="middle" dy="0.6em">-1</text>
    <text x="45.25" y="83.32" text-anchor="middle" dy="0.6em">0</text>
    <text x="57.56" y="83.32" text-anchor="middle" dy="0.6em">1</text>
    <text x="69.87" y="83.32" text-anchor="middle" dy="0.6em">2</text>
    <text x="82.18" y="83.32" text-anchor="middle" dy="0.6em">3</text>
  </g>
  <g class="guide colorkey" id="img-c877ab0a-38">
    <g font-size="2.82" font-family="'PT Sans','Helvetica Neue','Helvetica',sans-serif" fill="#4C404B" id="img-c877ab0a-39">
      <text x="88.49" y="51.27" dy="0.35em">0.04</text>
      <text x="88.49" y="58.1" dy="0.35em">0.02</text>
      <text x="88.49" y="44.44" dy="0.35em">0.06</text>
      <text x="88.49" y="37.61" dy="0.35em">0.08</text>
      <text x="88.49" y="64.92" dy="0.35em">0.00</text>
    </g>
    <g shape-rendering="crispEdges" stroke="#000000" stroke-opacity="0.000" id="img-c877ab0a-40">
      <rect x="86.18" y="64.24" width="1.31" height="0.68" fill="#004D84"/>
      <rect x="86.18" y="63.56" width="1.31" height="0.68" fill="#005B8D"/>
      <rect x="86.18" y="62.88" width="1.31" height="0.68" fill="#006995"/>
      <rect x="86.18" y="62.19" width="1.31" height="0.68" fill="#00769D"/>
      <rect x="86.18" y="61.51" width="1.31" height="0.68" fill="#0083A3"/>
      <rect x="86.18" y="60.83" width="1.31" height="0.68" fill="#278FA9"/>
      <rect x="86.18" y="60.15" width="1.31" height="0.68" fill="#409BAF"/>
      <rect x="86.18" y="59.46" width="1.31" height="0.68" fill="#55A7B5"/>
      <rect x="86.18" y="58.78" width="1.31" height="0.68" fill="#69B2BA"/>
      <rect x="86.18" y="58.1" width="1.31" height="0.68" fill="#7BBCC0"/>
      <rect x="86.18" y="57.41" width="1.31" height="0.68" fill="#8DC6C5"/>
      <rect x="86.18" y="56.73" width="1.31" height="0.68" fill="#9ED0CB"/>
      <rect x="86.18" y="56.05" width="1.31" height="0.68" fill="#A5CFC7"/>
      <rect x="86.18" y="55.37" width="1.31" height="0.68" fill="#ABCEC4"/>
      <rect x="86.18" y="54.68" width="1.31" height="0.68" fill="#B1CCC2"/>
      <rect x="86.18" y="54" width="1.31" height="0.68" fill="#B5CCC1"/>
      <rect x="86.18" y="53.32" width="1.31" height="0.68" fill="#B7CBBF"/>
      <rect x="86.18" y="52.63" width="1.31" height="0.68" fill="#B9CBBD"/>
      <rect x="86.18" y="51.95" width="1.31" height="0.68" fill="#BBCBBB"/>
      <rect x="86.18" y="51.27" width="1.31" height="0.68" fill="#BDCABA"/>
      <rect x="86.18" y="50.59" width="1.31" height="0.68" fill="#BFCAB8"/>
      <rect x="86.18" y="49.9" width="1.31" height="0.68" fill="#C2C9B7"/>
      <rect x="86.18" y="49.22" width="1.31" height="0.68" fill="#C4C9B6"/>
      <rect x="86.18" y="48.54" width="1.31" height="0.68" fill="#C6C8B5"/>
      <rect x="86.18" y="47.86" width="1.31" height="0.68" fill="#C9C7B4"/>
      <rect x="86.18" y="47.17" width="1.31" height="0.68" fill="#CCC7B2"/>
      <rect x="86.18" y="46.49" width="1.31" height="0.68" fill="#CFC6AE"/>
      <rect x="86.18" y="45.81" width="1.31" height="0.68" fill="#D4C5AA"/>
      <rect x="86.18" y="45.12" width="1.31" height="0.68" fill="#D8C3A6"/>
      <rect x="86.18" y="44.44" width="1.31" height="0.68" fill="#D3B79A"/>
      <rect x="86.18" y="43.76" width="1.31" height="0.68" fill="#CDAB8E"/>
      <rect x="86.18" y="43.08" width="1.31" height="0.68" fill="#C89E82"/>
      <rect x="86.18" y="42.39" width="1.31" height="0.68" fill="#C19177"/>
      <rect x="86.18" y="41.71" width="1.31" height="0.68" fill="#BA836C"/>
      <rect x="86.18" y="41.03" width="1.31" height="0.68" fill="#B27563"/>
      <rect x="86.18" y="40.34" width="1.31" height="0.68" fill="#AA665A"/>
      <rect x="86.18" y="39.66" width="1.31" height="0.68" fill="#A05752"/>
      <rect x="86.18" y="38.98" width="1.31" height="0.68" fill="#96484A"/>
      <rect x="86.18" y="38.3" width="1.31" height="0.68" fill="#8B3844"/>
      <rect x="86.18" y="37.61" width="1.31" height="0.68" fill="#7E273E"/>
      <g stroke="#FFFFFF" stroke-width="0.2" id="img-c877ab0a-41">
        <path fill="none" d="M86.18,51.27 L 87.49 51.27"/>
        <path fill="none" d="M86.18,58.1 L 87.49 58.1"/>
        <path fill="none" d="M86.18,44.44 L 87.49 44.44"/>
        <path fill="none" d="M86.18,37.61 L 87.49 37.61"/>
        <path fill="none" d="M86.18,64.92 L 87.49 64.92"/>
      </g>
    </g>
    <g fill="#362A35" font-size="3.88" font-family="'PT Sans','Helvetica Neue','Helvetica',sans-serif" stroke="#000000" stroke-opacity="0.000" id="img-c877ab0a-42">
      <text x="86.18" y="33.61">Density</text>
    </g>
  </g>
<g clip-path="url(#img-c877ab0a-43)">
  <g id="img-c877ab0a-44">
    <g pointer-events="visible" opacity="1" fill="#000000" fill-opacity="0.000" stroke="#000000" stroke-opacity="0.000" class="guide background" id="img-c877ab0a-45">
      <rect x="18.63" y="5" width="65.55" height="77.32"/>
    </g>
    <g class="guide ygridlines xfixed" stroke-dasharray="0.5,0.5" stroke-width="0.2" stroke="#D0D0E0" id="img-c877ab0a-46">
      <path fill="none" d="M18.63,80.32 L 84.18 80.32"/>
      <path fill="none" d="M18.63,55.88 L 84.18 55.88"/>
      <path fill="none" d="M18.63,31.44 L 84.18 31.44"/>
      <path fill="none" d="M18.63,7 L 84.18 7"/>
    </g>
    <g class="guide xgridlines yfixed" stroke-dasharray="0.5,0.5" stroke-width="0.2" stroke="#D0D0E0" id="img-c877ab0a-47">
      <path fill="none" d="M20.63,5 L 20.63 82.32"/>
      <path fill="none" d="M32.94,5 L 32.94 82.32"/>
      <path fill="none" d="M45.25,5 L 45.25 82.32"/>
      <path fill="none" d="M57.56,5 L 57.56 82.32"/>
      <path fill="none" d="M69.87,5 L 69.87 82.32"/>
      <path fill="none" d="M82.18,5 L 82.18 82.32"/>
    </g>
    <g class="plotpanel" id="img-c877ab0a-48">
      <g stroke-width="0.3" fill="#000000" fill-opacity="0.000" stroke-dasharray="none" id="img-c877ab0a-49">
        <path fill="none" d="M59.83,61.24 L 63.81 65.31 67.31 66.64 68.32 67.64 72.84 71.42 77.27 66.64 75.94 61.24 72.84 56.61 72.58 55.83 70.63 50.42 68.32 47.41 67.15 45.02 63.81 40.82 63.07 39.61 59.29 34.86 58.75 34.21 54.78 29.78 53.72 28.8 50.26 24.75 48.47 23.4 45.75 20.18 42.93 17.99 41.23 16.24 36.72 13.85 32.2 12.65 28.94 17.99 30.04 23.4 32.2 26.43 33.06 28.8 36.72 34.11 36.75 34.21 39.75 39.61 41.23 41.3 43.58 45.02 45.75 47.65 48.51 50.42 50.26 52.72 53.48 55.83 54.78 57.32 59.29 60.97 59.83 61.24" class="geometry color_" stroke="#006A96"/>
        <path fill="none" d="M63.01,61.24 L 63.81 62.05 68.32 64.48 72.06 61.24 70.45 55.83 68.32 51.74 68.04 50.42 64.98 45.02 63.81 43.55 61.41 39.61 59.29 36.95 57 34.21 54.78 31.73 51.63 28.8 50.26 27.21 45.75 23.57 45.32 23.4 41.23 19.58 36.72 18.55 33.43 23.4 35.68 28.8 36.72 30.31 37.94 34.21 41.23 38.53 41.92 39.61 45.75 44.54 46.09 45.02 50.26 49.81 50.79 50.42 54.78 55.01 55.92 55.83 59.29 59.4 63.01 61.24" class="geometry color_" stroke="#0185A4"/>
        <path fill="none" d="M66.97,61.24 L 68.32 62.02 69.23 61.24 68.33 55.83 68.32 55.82 67.16 50.42 63.81 45.6 63.52 45.02 59.75 39.61 59.29 39.04 55.25 34.21 54.78 33.68 50.26 29.03 49.89 28.8 45.75 24.66 42.73 23.4 41.23 22 36.72 21.69 35.56 23.4 36.72 25.96 37.25 28.8 39.13 34.21 41.23 36.96 42.93 39.61 45.75 43.25 47.02 45.02 50.26 48.74 51.71 50.42 54.78 53.96 57.4 55.83 59.29 57.83 63.81 60.3 66.97 61.24" class="geometry color_" stroke="#469EB1"/>
        <path fill="none" d="M66.29,50.42 L 67.06 55.83 63.81 59.05 59.29 56.27 58.88 55.83 54.78 52.9 52.63 50.42 50.26 47.67 47.95 45.02 45.75 41.95 43.93 39.61 41.23 35.4 40.33 34.21 38.13 28.8 41.23 23.97 45.75 25.74 48.81 28.8 50.26 29.7 54.34 34.21 54.78 34.63 58.94 39.61 59.29 40.22 62.9 45.02 63.81 46.86 66.29 50.42" class="geometry color_" stroke="#6FB6BC"/>
        <path fill="none" d="M60.71,55.83 L 59.29 55.27 54.78 51.84 53.55 50.42 50.26 46.6 48.88 45.02 45.75 40.66 44.93 39.61 41.4 34.21 41.23 33.74 39 28.8 41.23 25.34 45.75 26.82 47.73 28.8 50.26 30.36 53.74 34.21 54.78 35.22 58.44 39.61 59.29 41.05 62.27 45.02 63.81 48.12 65.41 50.42 65.8 55.83 63.81 57.8 60.71 55.83" class="geometry color_" stroke="#94CAC7"/>
        <path fill="none" d="M62.67,55.83 L 59.29 54.48 54.78 50.78 54.47 50.42 50.26 45.53 49.81 45.02 45.83 39.61 45.75 39.42 42.1 34.21 41.23 31.79 39.88 28.8 41.23 26.7 45.75 27.9 46.65 28.8 50.26 31.03 53.14 34.21 54.78 35.81 57.95 39.61 59.29 41.88 61.65 45.02 63.81 49.37 64.54 50.42 64.54 55.83 63.81 56.55 62.67 55.83" class="geometry color_" stroke="#A8CEC6"/>
        <path fill="none" d="M63.64,50.42 L 59.29 53.7 55.39 50.42 54.78 50.05 50.51 45.02 50.26 44.71 46.29 39.61 45.75 38.42 42.81 34.21 41.23 29.85 40.76 28.8 41.23 28.07 44.68 28.8 45.75 29.01 50.26 31.69 52.54 34.21 54.78 36.4 57.46 39.61 59.29 42.71 61.03 45.02 63.64 50.42" class="geometry color_" stroke="#B5CCC2"/>
        <path fill="none" d="M62.6,50.42 L 59.29 52.92 56.32 50.42 54.78 49.49 50.98 45.02 50.26 44.12 46.75 39.61 45.75 37.42 43.51 34.21 45.75 30.25 50.26 32.36 51.93 34.21 54.78 36.99 56.97 39.61 59.29 43.53 60.41 45.02 62.6 50.42" class="geometry color_" stroke="#B8CBBE"/>
        <path fill="none" d="M61.56,50.42 L 59.29 52.14 57.25 50.42 54.78 48.94 51.46 45.02 50.26 43.53 47.21 39.61 45.75 36.41 44.21 34.21 45.75 31.49 50.26 33.02 51.33 34.21 54.78 37.57 56.48 39.61 59.29 44.36 59.78 45.02 61.56 50.42" class="geometry color_" stroke="#BDCABA"/>
        <path fill="none" d="M60.53,50.42 L 59.29 51.36 58.18 50.42 54.78 48.38 51.93 45.02 50.26 42.94 47.67 39.61 45.75 35.41 44.91 34.21 45.75 32.73 50.26 33.69 50.73 34.21 54.78 38.16 55.99 39.61 59.14 45.02 59.29 45.83 60.53 50.42" class="geometry color_" stroke="#C1C9B7"/>
        <path fill="none" d="M59.49,50.42 L 59.29 50.58 59.11 50.42 59.29 49.68 59.49 50.42" class="geometry color_" stroke="#C6C8B5"/>
        <path fill="none" d="M47.85,34.21 L 45.75 34.4 45.61 34.21 45.75 33.97 47.85 34.21" class="geometry color_" stroke="#C6C8B5"/>
        <path fill="none" d="M48.13,39.61 L 50.26 34.45 54.78 38.75 55.5 39.61 58.41 45.02 54.78 47.82 52.41 45.02 50.26 42.35 48.13 39.61" class="geometry color_" stroke="#C6C8B5"/>
        <path fill="none" d="M48.59,39.61 L 50.26 41.76 52.88 45.02 54.78 47.26 57.68 45.02 55.01 39.61 54.78 39.34 50.26 35.56 48.59 39.61" class="geometry color_" stroke="#CCC7B1"/>
        <path fill="none" d="M49.05,39.61 L 50.26 41.18 54.03 39.61 50.26 36.67 49.05 39.61" class="geometry color_" stroke="#D4C5A9"/>
        <path fill="none" d="M53.35,45.02 L 54.78 46.7 56.96 45.02 54.78 40.42 53.35 45.02" class="geometry color_" stroke="#D4C5A9"/>
        <path fill="none" d="M49.51,39.61 L 50.26 40.59 52.61 39.61 50.26 37.78 49.51 39.61" class="geometry color_" stroke="#D2B597"/>
        <path fill="none" d="M53.83,45.02 L 54.78 46.14 56.23 45.02 54.78 41.96 53.83 45.02" class="geometry color_" stroke="#D2B597"/>
        <path fill="none" d="M49.96,39.61 L 50.26 40 51.18 39.61 50.26 38.89 49.96 39.61" class="geometry color_" stroke="#C69A7E"/>
        <path fill="none" d="M54.3,45.02 L 54.78 45.58 55.5 45.02 54.78 43.49 54.3 45.02" class="geometry color_" stroke="#C69A7E"/>
      </g>
    </g>
  </g>
</g>
  <g class="guide ylabels" font-size="2.82" font-family="'PT Sans Caption','Helvetica Neue','Helvetica',sans-serif" fill="#6C606B" id="img-c877ab0a-50">
    <text x="17.63" y="80.32" text-anchor="end" dy="0.35em">0.0</text>
    <text x="17.63" y="55.88" text-anchor="end" dy="0.35em">0.5</text>
    <text x="17.63" y="31.44" text-anchor="end" dy="0.35em">1.0</text>
    <text x="17.63" y="7" text-anchor="end" dy="0.35em">1.5</text>
  </g>
  <g font-size="3.88" font-family="'PT Sans','Helvetica Neue','Helvetica',sans-serif" fill="#564A55" stroke="#000000" stroke-opacity="0.000" id="img-c877ab0a-51">
    <text x="8.81" y="41.66" text-anchor="middle" dy="0.35em" transform="rotate(-90, 8.81, 43.66)">beta[2]</text>
  </g>
</g>
<defs>
  <clipPath id="img-c877ab0a-26">
  <path d="M120.23,5 L 185.78 5 185.78 82.32 120.23 82.32" />
</clipPath>
  <clipPath id="img-c877ab0a-43">
  <path d="M18.63,5 L 84.18 5 84.18 82.32 18.63 82.32" />
</clipPath>
  <clipPath id="img-c877ab0a-9">
  <path d="M18.63,106.6 L 84.18 106.6 84.18 183.92 18.63 183.92" />
</clipPath>
</defs>
</svg>
